<svg id="visual" viewBox="0 0 900 600" width="900" height="600" xmlns="http://www.w3.org/2000/svg" xmlns:xlink="http://www.w3.org/1999/xlink" version="1.1"><rect x="0" y="0" width="900" height="600" fill="#fff"></rect><defs><linearGradient id="grad1_0" x1="33.3%" y1="100%" x2="100%" y2="0%"><stop offset="20%" stop-color="#2292a4" stop-opacity="1"></stop><stop offset="80%" stop-color="#2292a4" stop-opacity="1"></stop></linearGradient></defs><defs><linearGradient id="grad1_1" x1="33.3%" y1="100%" x2="100%" y2="0%"><stop offset="20%" stop-color="#2292a4" stop-opacity="1"></stop><stop offset="80%" stop-color="#7bb6c2" stop-opacity="1"></stop></linearGradient></defs><defs><linearGradient id="grad1_2" x1="33.3%" y1="100%" x2="100%" y2="0%"><stop offset="20%" stop-color="#bedae0" stop-opacity="1"></stop><stop offset="80%" stop-color="#7bb6c2" stop-opacity="1"></stop></linearGradient></defs><defs><linearGradient id="grad1_3" x1="33.3%" y1="100%" x2="100%" y2="0%"><stop offset="20%" stop-color="#bedae0" stop-opacity="1"></stop><stop offset="80%" stop-color="#ffffff" stop-opacity="1"></stop></linearGradient></defs><defs><linearGradient id="grad2_0" x1="0%" y1="100%" x2="66.7%" y2="0%"><stop offset="20%" stop-color="#2292a4" stop-opacity="1"></stop><stop offset="80%" stop-color="#2292a4" stop-opacity="1"></stop></linearGradient></defs><defs><linearGradient id="grad2_1" x1="0%" y1="100%" x2="66.7%" y2="0%"><stop offset="20%" stop-color="#7bb6c2" stop-opacity="1"></stop><stop offset="80%" stop-color="#2292a4" stop-opacity="1"></stop></linearGradient></defs><defs><linearGradient id="grad2_2" x1="0%" y1="100%" x2="66.7%" y2="0%"><stop offset="20%" stop-color="#7bb6c2" stop-opacity="1"></stop><stop offset="80%" stop-color="#bedae0" stop-opacity="1"></stop></linearGradient></defs><defs><linearGradient id="grad2_3" x1="0%" y1="100%" x2="66.7%" y2="0%"><stop offset="20%" stop-color="#ffffff" stop-opacity="1"></stop><stop offset="80%" stop-color="#bedae0" stop-opacity="1"></stop></linearGradient></defs><g transform="translate(900, 600)"><path d="M-316 0C-326.7 -46.4 -337.3 -92.8 -324.8 -134.5C-312.2 -176.2 -276.5 -213.3 -238.3 -238.3C-200.1 -263.3 -159.5 -276.3 -119.4 -288.3C-79.3 -300.2 -39.6 -311.1 0 -322L0 0Z" fill="#dfecef"></path><path d="M-237 0C-245 -34.8 -253 -69.6 -243.6 -100.9C-234.2 -132.2 -207.4 -160 -178.7 -178.7C-150.1 -197.5 -119.6 -207.2 -89.5 -216.2C-59.5 -225.1 -29.7 -233.3 0 -241.5L0 0Z" fill="#9dc8d1"></path><path d="M-158 0C-163.3 -23.2 -168.7 -46.4 -162.4 -67.3C-156.1 -88.1 -138.2 -106.6 -119.1 -119.1C-100.1 -131.7 -79.8 -138.2 -59.7 -144.1C-39.6 -150.1 -19.8 -155.5 0 -161L0 0Z" fill="#56a4b3"></path><path d="M-79 0C-81.7 -11.6 -84.3 -23.2 -81.2 -33.6C-78.1 -44.1 -69.1 -53.3 -59.6 -59.6C-50 -65.8 -39.9 -69.1 -29.8 -72.1C-19.8 -75 -9.9 -77.8 0 -80.5L0 0Z" fill="#2292a4"></path></g><g transform="translate(0, 0)"><path d="M299 0C304.9 42.8 310.7 85.7 298.4 123.6C286.1 161.6 255.6 194.7 224.9 224.9C194.1 255.1 163 282.4 125.5 303C88 323.7 44 337.6 0 351.5L0 0Z" fill="#dfecef"></path><path d="M224.3 0C228.6 32.1 233 64.2 223.8 92.7C214.6 121.2 191.7 146 168.6 168.6C145.6 191.3 122.3 211.8 94.1 227.3C66 242.7 33 253.2 0 263.7L0 0Z" fill="#9dc8d1"></path><path d="M149.5 0C152.4 21.4 155.4 42.8 149.2 61.8C143.1 80.8 127.8 97.3 112.4 112.4C97 127.5 81.5 141.2 62.8 151.5C44 161.8 22 168.8 0 175.8L0 0Z" fill="#56a4b3"></path><path d="M74.8 0C76.2 10.7 77.7 21.4 74.6 30.9C71.5 40.4 63.9 48.7 56.2 56.2C48.5 63.8 40.8 70.6 31.4 75.8C22 80.9 11 84.4 0 87.9L0 0Z" fill="#2292a4"></path></g></svg>